<svg xmlns="http://www.w3.org/2000/svg" viewBox="0 0 225.2 204.78"><defs><style>.cls-1{fill:#fff;}.cls-2{fill:#00c2cb;}.cls-3,.cls-4,.cls-5{fill:none;stroke-miterlimit:10;}.cls-3{stroke:#00c2cb;}.cls-4{stroke:#ffdb38;}.cls-5{stroke:#ff3555;}.cls-6{fill:#ff3555;}.cls-7{fill:#ffdb38;}</style></defs><title>desktop</title><g id="Laag_1" data-name="Laag 1"><rect x="31" y="44" width="162" height="106" rx="6.9" ry="6.9"/><rect class="cls-1" x="37.5" y="50.5" width="149" height="88"/><path d="M186,51v87H38V51H186m1-1H37v89H187V50Z"/><polygon points="142 168 81 168 93 147 130 147 142 168"/><path class="cls-2" d="M193,171c0,2.69-1.57,4.89-3.5,4.89H34.5c-1.93,0-3.5-2.2-3.5-4.89,0,.35,40.5,0,81,0S193,171.37,193,171Z"/><path d="M31,170.89c0-2.69,1.57-4.89,3.5-4.89h155c1.93,0,3.5,2.2,3.5,4.89,0-.35-40.5,0-81,0S31,170.54,31,170.89Z"/></g><g id="Laag_3" data-name="Laag 3"><rect class="cls-3" x="49.5" y="121.5" width="55" height="5"/><rect class="cls-4" x="49.5" y="81.5" width="122" height="31"/><rect class="cls-3" x="49.5" y="62.5" width="92" height="10"/><rect class="cls-3" x="116.5" y="121.5" width="55" height="5"/><rect class="cls-5" x="146.5" y="62.5" width="25" height="10"/></g><g id="Laag_4" data-name="Laag 4"><rect class="cls-6" x="147" y="63" width="25" height="10"/><rect class="cls-7" x="50" y="82" width="122" height="31"/><rect class="cls-2" x="50" y="63" width="92" height="10"/><rect class="cls-2" x="50" y="122" width="55" height="5"/><rect class="cls-2" x="117" y="122" width="55" height="5"/></g></svg>