<svg xmlns="http://www.w3.org/2000/svg" viewBox="0 0 169.61 139.29"><title>desktop</title><rect x="3.24" y="3.21" width="162" height="106" rx="6.9" ry="6.9" fill="#010101"/><rect x="9.24" y="9.21" width="150" height="89" fill="#fff"/><polygon points="114.24 125.21 53.24 125.21 65.24 109.21 102.24 109.21 114.24 125.21" fill="#010101"/><path d="M165.24,130.23c0,2.69-1.57,4.89-3.5,4.89H6.74c-1.92,0-3.5-2.2-3.5-4.89,0,.35,40.5,0,81,0S165.24,130.58,165.24,130.23Z" fill="#31b8c5"/><path d="M3.24,130.1c0-2.69,1.58-4.89,3.5-4.89h155c1.93,0,3.5,2.2,3.5,4.89,0-.35-40.5,0-81,0S3.24,129.75,3.24,130.1Z" fill="#010101"/><rect x="119.24" y="22.21" width="25" height="10" fill="#e83d5a"/><rect x="22.24" y="41.21" width="122" height="31" fill="#ffdb39"/><rect x="22.24" y="22.21" width="92" height="10" fill="#31b8c5"/><rect x="22.24" y="81.21" width="55" height="5" fill="#31b8c5"/><rect x="89.24" y="81.21" width="55" height="5" fill="#31b8c5"/></svg>