<svg xmlns="http://www.w3.org/2000/svg" viewBox="0 0 194 170" id="SyQxmiKXo3G">
            <style>
                #Byrx7sFmo2M{fill: #010101;-webkit-transform-origin: 50% 50%;transform-origin: 50% 50%;transform-box: fill-box;}
                #BJLlXjtXjnz{fill: #fff;}
                #r1DemjtXihG{fill: #010101;}
                #B1ugQjYXshM{fill: #010101;}
                #rJFxQiKQi2z{fill: #31b8c5;}
                #SJqlmiYXsnM{fill: #010101;}
                #S1heQot7ihz{fill: none;stroke-miterlimit: 10;stroke: #31b8c5;}
                #SJaeXsFXonM{fill: none;stroke-miterlimit: 10;stroke: #ffdb39;}
                #HJRxXsYXjnz{fill: none;stroke-miterlimit: 10;stroke: #31b8c5;}
                #SJyZQiYQj2G{fill: none;stroke-miterlimit: 10;stroke: #31b8c5;}
                #SJlZ7sKXonz{fill: none;stroke-miterlimit: 10;stroke: #e83d5a;}
                #BJbWmsFXjhM{fill: #31b8c5;}
                #B1G-Xst7jhM{fill: #31b8c5;}
                #HkQW7otXsnM{fill: #31b8c5;}
                #HyE-QoK7s2z{fill: #e83d5a;}
                #BJHW7stQj3f{fill: #ffdb39;}
                #BJv-QotXj2M{fill: #e83d5a;visibility: hidden;}
                #rJdbmjK7o2f{fill: #ffdb39;visibility: hidden;}
                #SkFZQsKQinf{fill: #31b8c5;visibility: hidden;}
                #BJ5bmjFms3f{fill: #31b8c5;visibility: hidden;}
                #ByjZmoYQi2f{fill: #31b8c5;visibility: hidden;}
            </style>
            <defs/>
            <title>
                desktopje
            </title>
            <g id="rand">
                <rect x="14.74" y="19.74" width="162" height="106" rx="6.9" ry="6.9" id="Byrx7sFmo2M"/>
                <rect x="21.24" y="26.24" width="149" height="88" id="BJLlXjtXjnz"/>
                <path d="M169.74,26.74v87h-148v-87h148m1-1h-150v89h150v-89Z" id="r1DemjtXihG"/>
                <polygon points="125.74 143.74 64.74 143.74 76.74 122.74 113.74 122.74 125.74 143.74" id="B1ugQjYXshM"/>
                <path d="M176.74,146.77c0,2.69-1.57,4.89-3.5,4.89h-155c-1.92,0-3.5-2.2-3.5-4.89,0,.35,40.5,0,81,0S176.74,147.12,176.74,146.77Z" id="rJFxQiKQi2z"/>
                <path d="M14.74,146.63c0-2.69,1.58-4.89,3.5-4.89h155c1.93,0,3.5,2.2,3.5,4.89,0-.35-40.5,0-81,0S14.74,146.28,14.74,146.63Z" id="SJqlmiYXsnM"/>
            </g> 
            <g id="vol">
                <rect x="130.74" y="38.74" width="25" height="10" id="BJv-QotXj2M"/>
                <rect x="33.74" y="57.74" width="122" height="31" id="rJdbmjK7o2f"/>
                <rect x="33.74" y="38.74" width="92" height="10" id="SkFZQsKQinf"/>
                <rect x="33.74" y="97.74" width="55" height="5" id="BJ5bmjFms3f"/>
                <rect x="100.74" y="97.74" width="55" height="5" id="ByjZmoYQi2f"/>
            </g>
            <g id="krabbel">
                <rect x="33.24" y="97.24" width="55" height="5" id="S1heQot7ihz"/>
                <rect x="33.24" y="57.24" width="122" height="31" id="SJaeXsFXonM"/>
                <rect x="33.24" y="38.24" width="92" height="10" id="HJRxXsYXjnz"/>
                <rect x="100.24" y="97.24" width="55" height="5" id="SJyZQiYQj2G"/>
                <rect x="130.24" y="38.24" width="25" height="10" id="SJlZ7sKXonz"/>
                <path stroke="#31b8c5" d="M36.46,45.54a17.41,17.41,0,0,1,4.38-2.35l-3.08-1.74c.83,2.4-.29,5,2.86,5.93s6.16-2.85,8.23-4.72l-4.27-1.77-.5,3.22A2.57,2.57,0,0,0,45,47.53c1.27.93,2.35.61,3.73.14a77.8,77.8,0,0,0,9.73-3.91l-3.67-2.82a7.57,7.57,0,0,1-1.24,2.8c-1.07,1.76.36,3.56,2.16,3.76,4.55.5,6.71-3.67,10.85-4.18L64,40.82,63.3,44c-.51,1.14-.44,2.8.89,3.42,4.34,2,9.3-2.85,12.87-5l-3.68-2.82a9.67,9.67,0,0,1-1.53,4.19A2.54,2.54,0,0,0,74,47.58c4.27.29,6.9-3.13,10.92-3.5l-2.41-3.17-1,4.18a2.54,2.54,0,0,0,3.68,2.83A95.52,95.52,0,0,1,96,42.39l-3.76-2.16c-.16,2,1.15,3.64,1,5.56a2.51,2.51,0,0,0,3.17,2.41,76.89,76.89,0,0,0,10.53-4.81L103.52,40a26.32,26.32,0,0,0-2.47,4.81c-.88,2.25,1.93,3.64,3.68,2.83,3.36-1.57,6.88-2.47,10.07-4.4l-3.67-2.82a32.38,32.38,0,0,1-1.79,4.81c-.69,1.66,1,3,2.41,3.16,4.68.54,7.59-3.31,11.94-4.09,3.16-.56,1.82-5.38-1.33-4.82-3.67.66-6.9,4.34-10.61,3.91l2.41,3.17A29.94,29.94,0,0,0,116,41.72a2.53,2.53,0,0,0-3.67-2.82c-3.15,1.9-6.75,2.84-10.08,4.39l3.68,2.82a19.18,19.18,0,0,1,2-3.62c1.38-2.12-1.34-4.67-3.42-3.42a66.9,66.9,0,0,1-9.34,4.31l3.16,2.41c.17-2-1.15-3.64-1-5.56.18-2.1-2.2-2.83-3.76-2.16A95.66,95.66,0,0,0,82.68,43.6l3.67,2.82,1-4.18c.34-1.44-.72-3.32-2.41-3.16-3.85.36-7.18,3.75-10.92,3.5l2.16,3.76a18.49,18.49,0,0,0,2-5.39,2.53,2.53,0,0,0-3.67-2.82c-.61.36-7.46,5.13-7.81,5l.89,3.42A15.44,15.44,0,0,0,69,40.82a2.49,2.49,0,0,0-2.5-2.5c-3.82.47-7.24,4.58-10.85,4.18l2.16,3.76a11.75,11.75,0,0,0,1.74-4,2.54,2.54,0,0,0-3.68-2.82c-.41.21-8.66,3.57-8.4,3.76l.89,3.42a8.9,8.9,0,0,0,1.19-5.74,2.53,2.53,0,0,0-4.27-1.76c-.84.76-3.17,3.34-4.35,3.29l2.16,1.24c-.51-.84-.18-2.51-.54-3.54a2.53,2.53,0,0,0-3.07-1.75,23,23,0,0,0-5.58,2.85c-2.61,1.84-.11,6.18,2.53,4.32Z" id="BJbWmsFXjhM"/>
                <path stroke="#31b8c5" d="M35,102.17c17.25-.43,34.33,1,51.55.19,3.21-.14,3.22-5.14,0-5-17.22.76-34.3-.62-51.55-.19-3.21.07-3.22,5.08,0,5Z" id="B1G-Xst7jhM"/>
                <path stroke="#31b8c5" d="M102.7,102.23c16.68-.64,33.35,1.16,50,.11,3.2-.21,3.22-5.21,0-5-16.66,1-33.33-.75-50-.11-3.21.12-3.22,5.12,0,5Z" id="HkQW7otXsnM"/>
                <path stroke="#e83d5a" d="M130.36,41.05A29.07,29.07,0,0,1,132.11,47c.38,2.09,3.63,2.44,4.57.59s1.87-3.8,3.57-5.08l-3.76-2.16c.08,1.8-.11,3.79.49,5.5a2.61,2.61,0,0,0,2.41,1.84c2.65.22,5.4-3.33,7.44-4.67l-3.67-1.5c.31,1.59-.17,3.29.11,4.94.32,1.87,3,2.39,4.18,1.11l5.1-5.45-3.92-.5c.76,1.48.61,3.49,1.21,5.06,1.14,3,6,1.68,4.82-1.33-.81-2.11-.65-4.19-1.72-6.26a2.51,2.51,0,0,0-3.92-.5L143.92,44l4.18,1.1c-.28-1.64.21-3.24-.12-4.94a2.51,2.51,0,0,0-3.67-1.49c-.4.26-4.87,4-4.92,4l2.41,1.83a16.14,16.14,0,0,1-.31-4.17c-.08-1.69-2.15-3.37-3.77-2.15a18.51,18.51,0,0,0-5.36,6.87l4.57.6a29.07,29.07,0,0,0-1.75-5.93c-1.21-2.94-6.05-1.65-4.82,1.33Z" id="HyE-QoK7s2z"/>
                <path stroke="#ffdb39" d="M37.76,67.48a14.22,14.22,0,0,1,4.93-4.82L39,59.84,32.68,80.76c-.81,2.67,3.3,4.5,4.57,1.93A93.16,93.16,0,0,1,51.08,62l-3.92-3a109.12,109.12,0,0,0-7.55,25.31,2.51,2.51,0,0,0,4.57,1.93C50,77.3,56,68.49,64.13,61.41L60,59Q55.54,71.46,52.2,84.26a2.51,2.51,0,0,0,4.57,1.93C62,77.75,67.25,69.42,74.83,62.92l-3.92-3A81.61,81.61,0,0,0,60.68,83.51a2.51,2.51,0,0,0,4.57,1.93C70.77,77.14,76.39,69,84,62.44L79.85,60,74,85c-.63,2.68,3.17,4.5,4.57,1.93a147.87,147.87,0,0,1,17.68-25.7l-3.92-3a93.12,93.12,0,0,0-7.72,25.94c-.3,2.15,2.38,4.6,4.18,2.43C95.62,78.33,100,68.15,108.19,61L104,58.56Q100.59,72,98.31,85.69a2.51,2.51,0,0,0,4.57,1.92c6.05-9.13,12.64-17.87,19.06-26.74l-4.57-1.93a162.3,162.3,0,0,0-6.83,24.49c-.54,2.67,3.1,4.5,4.57,1.92,4.85-8.53,9.78-17,16.72-24l-3.93-3c-4,8.74-7.81,17.56-7.78,27.35a2.52,2.52,0,0,0,4.66,1.27c5.3-8.72,11-17.15,17-25.41l-4.57-1.93A150.71,150.71,0,0,0,134,85.24c-.11,2.54,3.43,3.33,4.66,1.26,4.68-7.86,6.81-17.2,12.86-24.22l-4.27-1.77c.19,6.48.36,13,.57,19.45.1,3.26.18,6,3,8.09,2.58,1.92,5.08-2.42,2.53-4.32-1.43-1.07-.63-8.64-.68-10.26l-.38-13c-.06-2-2.79-3.49-4.27-1.77-6.38,7.42-8.7,17-13.64,25.24L139,85.24A143.27,143.27,0,0,1,142,60.92,2.51,2.51,0,0,0,137.46,59c-6,8.26-11.7,16.68-17,25.4l4.66,1.26c0-8.89,3.44-16.89,7.1-24.83,1.12-2.45-1.81-5.18-3.93-3-7.23,7.33-12.44,16.13-17.5,25l4.57,1.92a163.69,163.69,0,0,1,6.83-24.48c1.06-2.84-3-4.05-4.57-1.92-6.42,8.87-13,17.61-19.06,26.74L103.13,87q2.28-13.69,5.71-27.13a2.52,2.52,0,0,0-4.18-2.43c-8.2,7.19-12.56,17.31-19.45,25.59l4.18,2.43A88.91,88.91,0,0,1,96.6,60.74c1.1-2.38-1.93-5.35-3.92-3a154.14,154.14,0,0,0-18.47,26.7l4.57,1.93,5.89-25a2.52,2.52,0,0,0-4.18-2.43c-7.95,6.79-13.81,15.38-19.56,24l4.57,1.92a77.69,77.69,0,0,1,9.72-22.43c1.6-2.52-1.86-4.79-3.92-3-7.9,6.77-13.45,15.5-18.85,24.28L57,85.59q3.34-12.81,7.75-25.28c.89-2.53-2.45-3.94-4.18-2.43C52.17,65.22,46,74.44,39.86,83.71l4.57,1.93a104.23,104.23,0,0,1,7-24.11c1-2.38-1.86-5.36-3.92-3A98.26,98.26,0,0,0,32.93,80.16l4.57,1.93,6.34-20.92a2.53,2.53,0,0,0-3.68-2.82A19.53,19.53,0,0,0,33.45,65c-1.72,2.73,2.6,5.25,4.31,2.53Z" id="BJHW7stQj3f"/>
            </g>
           
        </svg>