<svg xmlns="http://www.w3.org/2000/svg" viewBox="0 0 162 131.91"><title>Naamloos-5</title><g id="rand"><rect width="162" height="106" rx="6.9" ry="6.9" fill="#010101"/><rect x="3.09" y="3.5" width="151.45" height="99.1" rx="6.9" ry="6.9" fill="#010101"/><rect x="9.55" y="7.4" width="140.91" height="92.2" rx="6.9" ry="6.9" fill="#010101"/><rect x="6.5" y="6.5" width="149" height="88" fill="#fff"/><path d="M169.74,26.74v87h-148v-87h148m1-1h-150v89h150v-89Z" transform="translate(-14.74 -19.74)" fill="#010101"/><polygon points="111 122 50 122 62 106 99 106 111 122" fill="#010101"/><path d="M176.74,146.77c0,2.69-1.57,4.89-3.5,4.89h-155c-1.92,0-3.5-2.2-3.5-4.89,0,.35,40.5,0,81,0S176.74,147.12,176.74,146.77Z" transform="translate(-14.74 -19.74)" fill="#31b8c5"/><path d="M14.74,146.63c0-2.69,1.58-4.89,3.5-4.89h155c1.93,0,3.5,2.2,3.5,4.89,0-.35-40.5,0-81,0S14.74,146.28,14.74,146.63Z" transform="translate(-14.74 -19.74)" fill="#010101"/></g><g id="vol"><rect x="116" y="19" width="25" height="10" fill="#e83d5a"/><rect x="19" y="38" width="122" height="31" fill="#ffdb39"/><rect x="19" y="19" width="92" height="10" fill="#31b8c5"/><rect x="19" y="78" width="55" height="5" fill="#31b8c5"/><rect x="86" y="78" width="55" height="5" fill="#31b8c5"/></g><g id="krabbel"><path d="M37.46,62.52q28-.35,55.94,1.56a453.35,453.35,0,0,0,55.17.1l-1.25-1.25c.22,4.76.91,10.44,0,15.13-.5,2.45,1,2.68-3.4,4a18.45,18.45,0,0,1-3.93,0l-7.86,0-31.44.09c-10.46,0-20.92,0-31.38.1-5.15,0-10.31.09-15.45.35-2.57.13-5.14.31-7.7.56-4.72.45-4.95.7-5.37-4.7-.2-2.62-.77-5.69,2-7.27,1.82-1,5.23-1.18,7.29-1.58A84.08,84.08,0,0,1,67.26,68c10.35.15,20.73,1.33,31,2.12l31.82,2.44c1.94.15,6.88-.34,7.29,1.74s.28.75-1.07,1.18a18.72,18.72,0,0,1-3.72-.07c-5.26,0-10.52.51-15.75,1a233.23,233.23,0,0,1-34.15,1.09C70.82,77,59,76.08,47.05,76.74c-1.6.09-1.61,2.59,0,2.5,17.06-.95,34,1.41,51.09,1.07,8.14-.16,16.19-1.23,24.29-1.91,3.7-.31,7.41-.53,11.12-.5,2.27,0,5.55.66,7.6-.79,2.47-1.74,2.24-5-.47-6.12s-6.75-.66-9.57-.87l-13.92-1.07c-16.86-1.29-33.95-3.52-50.86-3.58a79.24,79.24,0,0,0-12.41,1c-4.2.64-9.83,1-13.69,2.8-1.56.71-1.77,1-2.12,2.57-.91,4.13.34,9.51,1,13.65a1.26,1.26,0,0,0,1.21.92c23.69-3.16,48.21-1.65,72.07-1.72l17.69-.06c4.85,0,10.49.74,15.27-.13,2.51-.46,3.77-1.52,4.21-4,1-5.58.46-11.85.21-17.49a1.27,1.27,0,0,0-1.25-1.25,453.35,453.35,0,0,1-55.17-.1q-28-1.9-55.94-1.56a1.25,1.25,0,0,0,0,2.5Z" transform="translate(-14.74 -19.74)" fill="#ffdb39"/><path d="M133.3,40.94c.15,1.59,1.21,3.73.64,5.2a1.26,1.26,0,0,0,1.21,1.58c1.66-.12,3-.47,2.73-2.37l-1.21,1.58c5.06.08,10.77,1.63,15.74.64a1.26,1.26,0,0,0,.75-1.84c.28.46-.53,1,.29.65a1.27,1.27,0,0,0,.87-1.54,9.87,9.87,0,0,1-1-3.22,1.29,1.29,0,0,0-1.25-1.25,47.36,47.36,0,0,0-7.62-.25c-3,.33-5.7,1.51-8.72.29-1.49-.6-2.14,1.82-.66,2.41a11.5,11.5,0,0,0,6.87.29,40.41,40.41,0,0,1,10.13-.24l-1.25-1.25a11.42,11.42,0,0,0,1.08,3.89l.87-1.54c-1.55.6-3,1.06-1.78,3l.75-1.83c-4.65.93-10.34-.66-15.08-.73a1.27,1.27,0,0,0-1.2,1.59c.06.39-.05.12-.32-.8l1.2,1.59c.78-2-.35-3.77-.55-5.87-.14-1.58-2.65-1.6-2.5,0Z" transform="translate(-14.74 -19.74)" fill="#e83d5a"/><path d="M36.56,42.55c17,.21,34.09.91,51.14,1.11,7.91.09,15.88.25,23.78-.2,2.41-.14,4.82-.37,7.23-.61.36,0,2-.47,2.4-.24a30.28,30.28,0,0,1,.18,3.46l1.87-1.87C108.53,44,93.88,45.3,79.23,45c-4-.1-7.87-1.11-11.81-1.57a46,46,0,0,0-9.6.31,37.55,37.55,0,0,1-8.07-.23c-4-.53-7.94.08-12-.08l1.8,1.37c.09.62,17.68-1.17,19.41-1.07,6.35.37,12.37,2.76,18.74,3.19a149.7,149.7,0,0,0,18.82-.4c6.52-.39,14.68-3,21-1.39,2.33.61,3.33-3,1-3.61-7.54-1.95-16.17,1-23.85,1.35-8.6.44-17.07.83-25.52-1.1A62.29,62.29,0,0,0,47.4,40.65c-3.56.38-12.24-.53-11.46,5.1a1.89,1.89,0,0,0,1.81,1.38c4.08.16,8-.27,12.06.12a51,51,0,0,0,8,.19c3.77-.24,6.94-.69,10.74-.14,3.56.5,7.07,1.31,10.67,1.4,14.65.36,29.3-1,43.93-.75A1.9,1.9,0,0,0,125,46.07c-.37-4.52-.3-7.48-5.36-7.06-7.73.63-15.37,1-23.13,1-20,0-40-.91-60-1.16-2.42,0-2.42,3.72,0,3.75Z" transform="translate(-14.74 -19.74)" fill="#31b8c5"/><path d="M34.88,98.39c15,.2,29.93.76,44.91.6,1.33,0,5.33-.68,6.48.08,1.67,1.11-6.65,1.51-7.23,1.54-5.55.25-11.14.28-16.7.23-4.92,0-9.49-1.16-14.41-.76a33.37,33.37,0,0,1-5.38-.16c-1.34-.1-3.93-.57-5.23,0,1.18-.52,4-.41,5.27-.53,6.79-.7,12.95,1.63,19.67,1.68,3.13,0,6.3-.14,9.42-.34,3.93-.26,8.42-1.62,12.26-.79.78.17,1.12-1,.33-1.2C79.35,97.68,74,99.4,69,99.62a72.1,72.1,0,0,1-17.34-1.35c-4.14-.78-11-1-14.93.5-1.19.47-2,.45-1.76,1.93a.63.63,0,0,0,.6.46c4,0,8,.36,11.92.19,4.54-.19,8.75.63,13.25.76,8.82.26,17.64-.53,26.46-.45a.63.63,0,0,0,.62-.63l-.2-2.48a.64.64,0,0,0-.46-.6c-1.9-.56-4.33-.23-6.29-.22-4.82,0-9.64.14-14.46.09-10.52-.11-21-.54-31.55-.68a.63.63,0,0,0,0,1.25Z" transform="translate(-14.74 -19.74)" fill="#31b8c5"/><path d="M102.07,99c15,.2,30.06,1.35,45,.57,1.09-.06,5.27-1.15,6.19-.55,2.94,2-6.41,2.16-7,2.19-5.56.25-11.14.29-16.7.23-4.92,0-9.49-1.15-14.41-.75a34.48,34.48,0,0,1-5.38-.16c-1.34-.1-3.93-.58-5.23,0,1.18-.53,4-.41,5.27-.54,6.79-.69,12.95,1.64,19.67,1.68,3.13,0,6.29-.13,9.42-.34,3.93-.26,8.42-1.61,12.26-.78.78.17,1.12-1,.33-1.21-4.92-1.06-10.26.66-15.25.89a72.58,72.58,0,0,1-17.34-1.35c-4.14-.78-11-1-14.93.49-1.19.47-2,.46-1.76,1.94a.65.65,0,0,0,.6.46c3.95,0,8,.36,11.92.19,4.53-.19,8.75.62,13.25.76,8.82.25,17.64-.53,26.45-.46a.63.63,0,0,0,.63-.62c-.14-1.78.24-3.26-1.54-3.89-.95-.33-3,.3-4,.39-2.74.23-5.48.27-8.23.3-13.08.11-26.14-.52-39.21-.69a.63.63,0,0,0,0,1.25Z" transform="translate(-14.74 -19.74)" fill="#31b8c5"/></g></svg>