<svg xmlns="http://www.w3.org/2000/svg" viewBox="0 0 98.65 60.31"><title>wolkje1</title><path d="M18.3,35.17a6.41,6.41,0,0,0,4.41,5.72c3.29,1.56,9.83.61,18.45.46,6.53-.12,6,.89,14.55,2,9.19,1.15,19.51-.63,23.33-6.16.29-.42,1.88-2.73,1.1-4s-2.8-.38-5.28-1.1c-1.75-.5,0-4.15-5.06-6.82-3-1.59-5.58-.28-8.51-.35a1,1,0,0,1-.92-.9c0-1.39-.66-4.22-4.66-5.79-2.29-.9-5.05.91-6.39.76-1.65-.18-5.42-2.43-7.47-2.3-7.45.48-5.53,5.61-7.26,6.38-1.91.85-2.92,0-4,.94-1.34,1.11-.4,2.49-1.7,3.68a15,15,0,0,0-5.72.22A7.57,7.57,0,0,0,18.3,35.17Z" fill="#fff"/></svg>