<svg xmlns="http://www.w3.org/2000/svg" viewBox="0 0 98.65 60.31"><title>wolkje2</title><path d="M24,36s-3.54-1.44-5.93-.54a4.75,4.75,0,0,0-2.83,5c.53,2.56,4,4,6.38,3.56a13.54,13.54,0,0,0,5.29-2.56,7.92,7.92,0,0,0,3.29,3.1c2.3.89,4.41-1.37,6-.18.73.54.5,1.15,1.37,1.73.68.46,1.61.63,3.38.28,2.73-.55,3.18-1.51,5.38-2.19a54.53,54.53,0,0,1,6.56.09c2.33,1,1.9,2.25,4.38,3.65s6.32,2.17,8.48.45c1.08-.85,2.55-2.18,2.55-2.18.87-.09,1.47.5,2.1.91,2.92,1.89,7.29.3,8.39-.09a11.33,11.33,0,0,0,6.11-4.75,11,11,0,0,0,1.37-7.2c-.51-3.58-2.84-7.64-6.48-8.93-4.23-1.51-8.91.71-9.94,0s-1.16-4-3.55-7.39c-3.47-4.87-10.16-5.51-11.68-5.65-1.88-.18-8-.44-12.31,3.19C36.17,21.5,37.81,26,36.72,26.7c-2.37,1.57-4.82-1.13-7.75.64a8.64,8.64,0,0,0-2.83,3.19C24.45,33.46,25.27,35.19,24,36Z" fill="#fff"/></svg>